# xmcd
# Track frame offsets:
# 150
# 10757
# 19970
# 31267
# 39437
# 48627
# 59547
# 69367
# 78857
# 88307
# 97580
# 106552
# 117672
# 127747
# 137665
# 148240
# 158607
# 168987
# 178255
# 189805
#
# Disc length: 2688 seconds
# Revision: 0
# Processed by: cddbd v1.4PL0 Copyright (c) Steve Scherf et al.
# Submitted via: VisiTrax 2.9.2.167 - For more info visit www.synapsa.com
#
DISCID=fd0a7e14
DTITLE=Reeves, Jim - The singles 1953 to 1960 CD2
DYEAR=1900
DGENRE=
TTITLE0=Two shadows on your window
TTITLE1=Young hearts
TTITLE2=Anna Marie
TTITLE3=Everywhere you go
TTITLE4=Overnight
TTITLE5=I love you more
TTITLE6=Blue boy
TTITLE7=Theme of love (I love to say I love you)
TTITLE8=Billy Bayou
TTITLE9=I'd like to be
TTITLE10=Home
TTITLE11=If heartache is the fashion
TTITLE12=Partners
TTITLE13=I'm beginning to forget you
TTITLE14=He'll have to go
TTITLE15=In a mansion stands my love
TTITLE16=I'm getting better
TTITLE17=I know one
TTITLE18=I missed me
TTITLE19=Am I losing you?
EXTD=
EXTT0=
EXTT1=
EXTT2=
EXTT3=
EXTT4=
EXTT5=
EXTT6=
EXTT7=
EXTT8=
EXTT9=
EXTT10=
EXTT11=
EXTT12=
EXTT13=
EXTT14=
EXTT15=
EXTT16=
EXTT17=
EXTT18=
EXTT19=
PLAYORDER=
